<?xml version="1.0" standalone="no"?>
<!DOCTYPE svg PUBLIC "-//W3C//DTD SVG 20010904//EN"
 "http://www.w3.org/TR/2001/REC-SVG-20010904/DTD/svg10.dtd">
<svg version="1.0" xmlns="http://www.w3.org/2000/svg"
 width="275.000000pt" height="183.000000pt" viewBox="0 0 275.000000 183.000000"
 preserveAspectRatio="xMidYMid meet">

<g transform="translate(0.000000,183.000000) scale(0.100000,-0.100000)"
fill="#000000" stroke="none">
<path d="M2278 1794 c-38 -27 -73 -86 -64 -109 3 -8 30 -31 60 -51 48 -31 62
-36 96 -31 l40 5 35 -111 c54 -177 94 -324 110 -413 15 -79 15 -85 -5 -144
-49 -146 -158 -324 -264 -433 -102 -105 -237 -184 -513 -301 -237 -101 -339
-127 -556 -142 l-102 -8 60 -18 c142 -44 343 -45 552 -3 183 38 466 152 600
243 146 99 320 339 388 537 26 75 31 209 10 281 -28 99 -73 172 -122 201 -76
44 -143 209 -143 350 0 95 -6 106 -89 148 -28 14 -52 25 -53 24 -2 0 -20 -12
-40 -25z"/>
<path d="M2272 1528 c-5 -7 -13 -38 -16 -68 -14 -115 -18 -133 -27 -119 -10
17 -11 16 -42 -55 -65 -142 -196 -292 -355 -406 -269 -192 -802 -360 -1143
-360 -136 0 -220 15 -369 65 -57 19 -105 34 -106 32 -2 -2 27 -23 63 -47 93
-61 206 -108 322 -133 l98 -22 24 -45 c29 -54 40 -58 189 -59 135 -1 255 17
436 64 257 67 504 174 639 278 136 104 238 254 289 427 14 47 37 113 51 148
23 56 25 68 16 118 -11 58 -49 194 -55 194 -2 0 -8 -6 -14 -12z"/>
<path d="M280 971 c14 -11 31 -21 39 -21 18 0 14 4 -29 24 l-35 17 25 -20z"/>
</g>
</svg>
